<svg width="132" height="132" viewBox="0 0 132 132" fill="none" xmlns="http://www.w3.org/2000/svg">
<g clip-path="url(#clip0_192_672)">
<path d="M65.9362 0.217422C29.6311 0.217422 0.198578 29.6491 0.198578 65.9543C0.198578 102.261 29.6311 131.69 65.9362 131.69C102.245 131.69 131.675 102.261 131.675 65.9543C131.675 29.6515 102.246 0.217422 65.9362 0.217422ZM96.0831 95.0288C94.9056 96.9599 92.3779 97.5722 90.4468 96.3869C75.0123 86.9591 55.5821 84.8239 32.6996 90.052C30.4946 90.5544 28.2966 89.1728 27.7942 86.9669C27.2895 84.7611 28.6655 82.5631 30.8761 82.0607C55.9173 76.3397 77.3971 78.803 94.725 89.3926C96.6561 90.5779 97.2684 93.0977 96.0831 95.0288ZM104.129 77.1294C102.646 79.5409 99.4899 80.3024 97.08 78.8187C79.4098 67.9576 52.4744 64.8121 31.5739 71.1564C28.8634 71.9752 26.0005 70.4476 25.1778 67.7417C24.3614 65.0311 25.8898 62.1737 28.5957 61.3495C52.4697 54.1056 82.1494 57.6145 102.441 70.0841C104.851 71.5677 105.613 74.7226 104.129 77.1294ZM104.82 58.4906C83.6331 45.9063 48.6774 44.7493 28.4489 50.8887C25.2006 51.8739 21.7655 50.0401 20.7811 46.7918C19.7967 43.5419 21.6289 40.1092 24.8795 39.1217C48.1004 32.0724 86.7024 33.4344 111.095 47.9151C114.023 49.6492 114.981 53.4226 113.246 56.3405C111.519 59.2622 107.732 60.2254 104.82 58.4906Z" fill="#57B65F"/>
</g>
<defs>
<clipPath id="clip0_192_672">
<rect width="132" height="132" fill="white"/>
</clipPath>
</defs>
</svg>
